<?xml version="1.0" encoding="UTF-8" standalone="no"?>
<svg
   xmlns:dc="http://purl.org/dc/elements/1.1/"
   xmlns:cc="http://creativecommons.org/ns#"
   xmlns:rdf="http://www.w3.org/1999/02/22-rdf-syntax-ns#"
   xmlns:svg="http://www.w3.org/2000/svg"
   xmlns="http://www.w3.org/2000/svg"
   viewBox="0 0 666.66669 466.66666"
   height="466.66666"
   width="666.66669"
   xml:space="preserve"
   id="svg2"
   version="1.1"><metadata
     id="metadata8"><rdf:RDF><cc:Work
         rdf:about=""><dc:format>image/svg+xml</dc:format><dc:type
           rdf:resource="http://purl.org/dc/dcmitype/StillImage" /></cc:Work></rdf:RDF></metadata><defs
     id="defs6"><clipPath
       id="clipPath18"
       clipPathUnits="userSpaceOnUse"><path
         id="path16"
         d="M 0,350 H 500 V 0 H 0 Z" /></clipPath></defs><g
     transform="matrix(1.3333333,0,0,-1.3333333,0,466.66667)"
     id="g10"><g
       id="g12"><g
         clip-path="url(#clipPath18)"
         id="g14"><g
           transform="translate(317.4123,144.6204)"
           id="g20"><path
             id="path22"
             style="fill:#00689d;fill-opacity:1;fill-rule:nonzero;stroke:none"
             d="m 0,0 c -0.833,-9.447 -8.779,-16.885 -18.439,-16.885 -10.212,0 -18.521,8.31 -18.521,18.523 0,10.213 8.309,18.522 18.521,18.522 9.66,0 17.606,-7.437 18.439,-16.885 z m 0,32.511 c -5.402,3.239 -11.695,5.136 -18.439,5.136 -19.856,0 -36.009,-16.153 -36.009,-36.009 0,-16.878 11.67,-31.079 27.364,-34.961 5.095,-1.41 9.577,-1.181 9.577,-1.181 H 16.276 V 37.699 H 0 Z" /></g><g
           transform="translate(379.7083,182.3199)"
           id="g24"><path
             id="path26"
             style="fill:#00689d;fill-opacity:1;fill-rule:nonzero;stroke:none"
             d="m 0,0 -12.382,-16.634 -4.367,-5.866 -0.492,-0.661 V 29.784 H -33.516 V -72.204 h 16.275 v 21.787 l 3.128,4.201 L 0.87,-72.204 H 19.656 L -3.526,-31.994 20.29,0 Z" /></g><g
           transform="translate(422.6293,212.1056)"
           id="g28"><path
             id="path30"
             style="fill:#00689d;fill-opacity:1;fill-rule:nonzero;stroke:none"
             d="m 0,0 h -3.422 -12.853 v -65.842 c 0,-12.592 6.483,-23.684 16.275,-30.157 0.825,-0.546 1.664,-1.069 2.534,-1.547 4.585,-2.518 9.772,-4.066 15.285,-4.378 0.68,-0.038 1.363,-0.066 2.053,-0.066 h 7.987 l -0.001,16.276 c 0,0 -3.45,-0.084 -6.673,0 -3.224,0.084 -6.106,0.458 -7.015,0.654 -3.337,0.72 -6.225,2.216 -8.501,4.875 -2.02,2.115 -5.638,8.374 -5.669,13.292 v 20.831 h 27.859 v 2.302 13.879 0.094 H 0 Z" /></g><g
           transform="translate(359.3598,286.5223)"
           id="g32"><path
             id="path34"
             style="fill:#fd9d24;fill-opacity:1;fill-rule:nonzero;stroke:none"
             d="M 0,0 C 7.47,0 13.966,-4.166 17.294,-10.3 H -17.294 C -13.966,-4.166 -7.469,0 0,0 m -2.038,-55.599 c 0.675,-0.038 1.354,-0.061 2.038,-0.061 0.685,0 1.363,0.023 2.038,0.061 H 9.75 v 16.275 H 0 c -8.422,0 -15.587,5.306 -18.387,12.748 h 36.775 16.94 c 0.436,2.239 0.671,4.549 0.671,6.914 0,3.239 -0.435,6.376 -1.238,9.362 C 30.64,5.041 16.642,16.336 0,16.336 c -16.642,0 -30.639,-11.295 -34.761,-26.636 -0.802,-2.986 -1.237,-6.123 -1.237,-9.362 0,-2.365 0.235,-4.675 0.67,-6.914 0.901,-4.628 2.689,-8.937 5.18,-12.748 5.494,-8.407 14.402,-14.379 24.761,-15.934 1.101,-0.165 2.218,-0.278 3.349,-0.341" /></g><g
           transform="translate(279.2737,254.2051)"
           id="g36"><path
             id="path38"
             style="fill:#fd9d24;fill-opacity:1;fill-rule:nonzero;stroke:none"
             d="m 0,0 c 0,17.005 13.785,32.286 30.79,32.287 h 8.221 V 48.563 H 35.713 -0.034 -16.31 V 32.287 -23.332 h 16.276 z" /></g><path
           id="path40"
           style="fill:#fd9d24;fill-opacity:1;fill-rule:nonzero;stroke:none"
           d="m 406.354,259.947 h 44.134 v 16.276 h -44.134 z" /><g
           transform="translate(76.7488,55.3349)"
           id="g42"><path
             id="path44"
             style="fill:#00689d;fill-opacity:1;fill-rule:nonzero;stroke:none"
             d="M 0,0 C 2.405,0 3.487,1.162 3.487,3.055 3.487,5.001 2.405,6.137 0,6.137 H -3.407 V 0 Z m 0,-2.514 h -3.407 v -7.624 H -6.489 V 8.651 H 0 C 4.46,8.651 6.651,6.109 6.651,3.055 6.651,0.378 4.892,-2.514 0,-2.514" /></g><path
           id="path46"
           style="fill:#00689d;fill-opacity:1;fill-rule:nonzero;stroke:none"
           d="m 91.743,60.094 h 3.082 V 45.198 h -3.082 z m -0.406,3.945 c 0,1.109 0.866,1.974 1.974,1.974 1.082,0 1.947,-0.865 1.947,-1.974 0,-1.107 -0.865,-1.973 -1.947,-1.973 -1.108,0 -1.974,0.866 -1.974,1.973" /><path
           id="path48"
           style="fill:#00689d;fill-opacity:1;fill-rule:nonzero;stroke:none"
           d="m 104.282,65.202 h 3.082 V 45.197 h -3.082 z" /><g
           transform="translate(123.2828,47.6308)"
           id="g50"><path
             id="path52"
             style="fill:#00689d;fill-opacity:1;fill-rule:nonzero;stroke:none"
             d="m 0,0 c 2.297,0 4.569,1.649 4.569,5.027 0,3.38 -2.19,5.002 -4.489,5.002 -2.324,0 -4.405,-1.622 -4.405,-5.002 C -4.325,1.649 -2.325,0 0,0 m 0,-2.677 c -4.245,0 -7.462,3.029 -7.462,7.704 0,4.677 3.352,7.678 7.597,7.678 4.244,0 7.596,-3.001 7.596,-7.678 C 7.731,0.352 4.27,-2.677 0,-2.677" /></g><g
           transform="translate(139.9533,57.5784)"
           id="g54"><path
             id="path56"
             style="fill:#00689d;fill-opacity:1;fill-rule:nonzero;stroke:none"
             d="M 0,0 H -1.757 V 2.515 H 0 V 6.217 H 3.11 V 2.515 H 6.732 V 0 H 3.11 v -8.246 c 0,-1.108 0.432,-1.567 1.73,-1.567 h 1.892 v -2.568 H 4.299 C 1.65,-12.381 0,-11.273 0,-8.246 Z" /></g><g
           transform="translate(157.1136,53.9831)"
           id="g58"><path
             id="path60"
             style="fill:#00689d;fill-opacity:1;fill-rule:nonzero;stroke:none"
             d="M 0,0 H 8.246 C 8.191,2.299 6.381,3.759 4.082,3.759 2,3.759 0.325,2.352 0,0 m 4.217,-9.029 c -4.27,0 -7.434,3.028 -7.434,7.704 0,4.677 3.029,7.677 7.434,7.677 4.245,0 7.246,-2.945 7.246,-7.325 0,-0.514 -0.027,-1.001 -0.109,-1.514 H -0.027 c 0.217,-2.46 1.974,-3.947 4.244,-3.947 1.894,0 2.947,0.918 3.515,2.082 h 3.326 C 10.219,-6.947 7.867,-9.029 4.217,-9.029" /></g><g
           transform="translate(180.0831,45.1972)"
           id="g62"><path
             id="path64"
             style="fill:#00689d;fill-opacity:1;fill-rule:nonzero;stroke:none"
             d="M 0,0 H -3.082 V 14.896 H 0 v -2.163 c 0.865,1.487 2.352,2.405 4.46,2.405 V 11.949 H 3.677 C 1.407,11.949 0,11.003 0,7.839 Z" /></g><path
           id="path66"
           style="fill:#00689d;fill-opacity:1;fill-rule:nonzero;stroke:none"
           d="m 205.213,65.202 h 3.082 V 45.197 h -3.082 z" /><g
           transform="translate(224.4017,57.6601)"
           id="g68"><path
             id="path70"
             style="fill:#00689d;fill-opacity:1;fill-rule:nonzero;stroke:none"
             d="m 0,0 c -2.297,0 -4.514,-1.73 -4.514,-4.947 0,-3.217 2.217,-5.082 4.514,-5.082 2.325,0 4.515,1.81 4.515,5.027 C 4.515,-1.812 2.325,0 0,0 m -0.648,2.675 c 2.513,0 4.243,-1.188 5.163,-2.405 V 2.434 H 7.624 V -12.463 H 4.515 v 2.217 c -0.946,-1.27 -2.73,-2.46 -5.217,-2.46 -3.867,0 -6.975,3.163 -6.975,7.759 0,4.595 3.108,7.622 7.029,7.622" /></g><g
           transform="translate(260.5594,57.6601)"
           id="g72"><path
             id="path74"
             style="fill:#00689d;fill-opacity:1;fill-rule:nonzero;stroke:none"
             d="m 0,0 c -2.297,0 -4.514,-1.73 -4.514,-4.947 0,-3.217 2.217,-5.082 4.514,-5.082 2.325,0 4.515,1.81 4.515,5.027 C 4.515,-1.812 2.325,0 0,0 m -0.622,2.675 c 1.947,0 4.002,-0.918 5.137,-2.323 v 7.19 H 7.624 V -12.463 H 4.515 v 2.244 c -0.946,-1.352 -2.73,-2.487 -5.163,-2.487 -3.921,0 -7.029,3.163 -7.029,7.759 0,4.595 3.108,7.622 7.055,7.622" /></g><g
           transform="translate(291.1262,45.1972)"
           id="g76"><path
             id="path78"
             style="fill:#00689d;fill-opacity:1;fill-rule:nonzero;stroke:none"
             d="m 0,0 h -3.082 v 1.784 c -0.973,-1.271 -2.65,-2.001 -4.407,-2.001 -3.487,0 -6.137,2.191 -6.137,6.354 v 8.759 h 3.055 v -8.3 c 0,-2.731 1.487,-4.136 3.73,-4.136 2.272,0 3.759,1.405 3.759,4.136 v 8.3 H 0 Z" /></g><g
           transform="translate(303.6597,45.1972)"
           id="g80"><path
             id="path82"
             style="fill:#00689d;fill-opacity:1;fill-rule:nonzero;stroke:none"
             d="M 0,0 H -3.082 V 14.896 H 0 v -2.163 c 0.865,1.487 2.352,2.405 4.46,2.405 V 11.949 H 3.677 C 1.407,11.949 0,11.003 0,7.839 Z" /></g><g
           transform="translate(323.0103,57.6601)"
           id="g84"><path
             id="path86"
             style="fill:#00689d;fill-opacity:1;fill-rule:nonzero;stroke:none"
             d="m 0,0 c -2.297,0 -4.514,-1.73 -4.514,-4.947 0,-3.217 2.217,-5.082 4.514,-5.082 2.325,0 4.515,1.81 4.515,5.027 C 4.515,-1.812 2.325,0 0,0 m -0.648,2.675 c 2.513,0 4.243,-1.188 5.163,-2.405 V 2.434 H 7.624 V -12.463 H 4.515 v 2.217 c -0.946,-1.27 -2.73,-2.46 -5.217,-2.46 -3.867,0 -6.975,3.163 -6.975,7.759 0,4.595 3.108,7.622 7.029,7.622" /></g><g
           transform="translate(347.6832,57.6601)"
           id="g88"><path
             id="path90"
             style="fill:#00689d;fill-opacity:1;fill-rule:nonzero;stroke:none"
             d="m 0,0 c -2.298,0 -4.515,-1.812 -4.515,-5.002 0,-3.217 2.217,-5.027 4.515,-5.027 2.325,0 4.542,1.865 4.542,5.082 C 4.542,-1.73 2.325,0 0,0 m 0.675,2.675 c 3.947,0 7.002,-3.027 7.002,-7.622 0,-4.596 -3.082,-7.759 -7.002,-7.759 -2.46,0 -4.217,1.108 -5.19,2.407 v -2.164 H -7.597 V 7.542 h 3.082 V 0.217 c 0.973,1.351 2.838,2.458 5.19,2.458" /></g><path
           id="path92"
           style="fill:#00689d;fill-opacity:1;fill-rule:nonzero;stroke:none"
           d="m 363.812,60.094 h 3.082 V 45.198 h -3.082 z m -0.405,3.945 c 0,1.109 0.865,1.974 1.973,1.974 1.082,0 1.947,-0.865 1.947,-1.974 0,-1.107 -0.865,-1.973 -1.947,-1.973 -1.108,0 -1.973,0.866 -1.973,1.973" /><path
           id="path94"
           style="fill:#00689d;fill-opacity:1;fill-rule:nonzero;stroke:none"
           d="m 376.352,65.202 h 3.082 V 45.197 h -3.082 z" /><path
           id="path96"
           style="fill:#00689d;fill-opacity:1;fill-rule:nonzero;stroke:none"
           d="m 388.89,60.094 h 3.082 V 45.198 h -3.082 z m -0.405,3.945 c 0,1.109 0.865,1.974 1.973,1.974 1.082,0 1.947,-0.865 1.947,-1.974 0,-1.107 -0.865,-1.973 -1.947,-1.973 -1.108,0 -1.973,0.866 -1.973,1.973" /><g
           transform="translate(401.9149,57.5784)"
           id="g98"><path
             id="path100"
             style="fill:#00689d;fill-opacity:1;fill-rule:nonzero;stroke:none"
             d="M 0,0 H -1.757 V 2.515 H 0 V 6.217 H 3.11 V 2.515 H 6.732 V 0 H 3.11 v -8.246 c 0,-1.108 0.432,-1.567 1.73,-1.567 h 1.892 v -2.568 H 4.299 C 1.65,-12.381 0,-11.273 0,-8.246 Z" /></g><g
           transform="translate(425.996,66.716)"
           id="g102"><path
             id="path104"
             style="fill:#00689d;fill-opacity:1;fill-rule:nonzero;stroke:none"
             d="m 0,0 v -2.622 l -5.974,-2.947 v 2.27 z m -6.921,-12.733 h 8.246 c -0.055,2.299 -1.865,3.759 -4.164,3.759 -2.081,0 -3.757,-1.407 -4.082,-3.759 m 4.217,-9.029 c -4.27,0 -7.434,3.028 -7.434,7.704 0,4.677 3.029,7.677 7.434,7.677 4.246,0 7.246,-2.945 7.246,-7.325 0,-0.514 -0.027,-1 -0.108,-1.514 H -6.947 c 0.216,-2.46 1.973,-3.947 4.243,-3.947 1.894,0 2.947,0.919 3.516,2.082 h 3.325 c -0.838,-2.595 -3.19,-4.677 -6.841,-4.677" /></g><g
           transform="translate(139.7394,280.1558)"
           id="g106"><path
             id="path108"
             style="fill:#fd9d24;fill-opacity:1;fill-rule:nonzero;stroke:none"
             d="M 0,0 C -0.002,0 -0.005,0 -0.007,-0.001 V 22.48 h -89.244 v -90.375 h 22.245 C -64.211,-32.014 -35.805,-3.315 0,0" /></g><g
           transform="translate(153.6197,302.3734)"
           id="g110"><path
             id="path112"
             style="fill:#00689d;fill-opacity:1;fill-rule:nonzero;stroke:none"
             d="m 0,0 v -22.218 c -0.001,0 -0.003,0 -0.004,0 37.719,-3.493 67.252,-35.152 67.252,-73.707 0,-40.891 -33.217,-74.04 -74.192,-74.04 -38.249,0 -69.727,28.888 -73.747,65.993 h -22.084 c 4.099,-49.349 45.505,-88.132 96.01,-88.14 0.006,0 0.012,-0.001 0.018,-0.001 0.005,0 0.011,0.001 0.017,0.001 h 95.974 v 99.696 c 0,0 0.035,5.278 -0.098,6.18 C 84.498,-39.872 46.858,-3.238 0,0" /></g></g></g></g></svg>