<?xml version="1.0" encoding="utf-8"?>
<!-- Generator: Adobe Illustrator 27.5.0, SVG Export Plug-In . SVG Version: 6.00 Build 0)  -->
<svg version="1.1"
	 id="svg2" xmlns:cc="http://creativecommons.org/ns#" xmlns:svg="http://www.w3.org/2000/svg" xmlns:rdf="http://www.w3.org/1999/02/22-rdf-syntax-ns#" xmlns:dc="http://purl.org/dc/elements/1.1/"
	 xmlns="http://www.w3.org/2000/svg" xmlns:xlink="http://www.w3.org/1999/xlink" x="0px" y="0px" viewBox="0 0 537.7 260.7"
	 style="enable-background:new 0 0 537.7 260.7;" xml:space="preserve">
<style type="text/css">
	.st0{fill:#FFFFFF;}
	.st1{fill:#FFFFFF;}
</style>
<g id="g10" transform="matrix(1.3333333,0,0,-1.3333333,0,466.66667)">
	<g id="g12">
		<g>
			<g id="g14">
				<g id="g20" transform="translate(317.4123,144.6204)">
					<path id="path22" class="st0" d="M-50.5,47.1c-0.8-9.4-8.8-16.9-18.4-16.9c-10.2,0-18.5,8.3-18.5,18.5s8.3,18.5,18.5,18.5
						c9.7,0,17.6-7.4,18.4-16.9V47.1z M-50.5,79.7c-5.4,3.2-11.7,5.1-18.4,5.1c-19.9,0-36-16.2-36-36c0-16.9,11.7-31.1,27.4-35
						c5.1-1.4,9.6-1.2,9.6-1.2h33.8v72.2h-16.3V79.7z"/>
				</g>
				<g id="g24" transform="translate(379.7083,182.3199)">
					<path id="path26" class="st0" d="M-50.5,47.1l-12.4-16.6l-4.4-5.9l-0.5-0.7v52.9H-84v-102h16.3v21.8l3.1,4.2l15-26h18.8
						L-54,15.1l23.8,32H-50.5z"/>
				</g>
				<g id="g28" transform="translate(422.6293,212.1056)">
					<path id="path30" class="st0" d="M-50.5,47.1h-3.4h-12.9v-65.8c0-12.6,6.5-23.7,16.3-30.2c0.8-0.5,1.7-1.1,2.5-1.5
						c4.6-2.5,9.8-4.1,15.3-4.4c0.7,0,1.4-0.1,2.1-0.1h8l0,16.3c0,0-3.5-0.1-6.7,0c-3.2,0.1-6.1,0.5-7,0.7c-3.3,0.7-6.2,2.2-8.5,4.9
						c-2,2.1-5.6,8.4-5.7,13.3V1.1h27.9v2.3v13.9v0.1h-27.9V47.1z"/>
				</g>
				<g id="g32" transform="translate(359.3598,286.5223)">
					<path id="path34" class="st1" d="M-50.5,47.1c7.5,0,14-4.2,17.3-10.3h-34.6C-64.5,43-58,47.1-50.5,47.1 M-52.5-8.5
						c0.7,0,1.4-0.1,2-0.1c0.7,0,1.4,0,2,0.1h7.7V7.8h-9.8c-8.4,0-15.6,5.3-18.4,12.7h36.8h16.9c0.4,2.2,0.7,4.5,0.7,6.9
						c0,3.2-0.4,6.4-1.2,9.4c-4.1,15.3-18.1,26.6-34.8,26.6s-30.6-11.3-34.8-26.6c-0.8-3-1.2-6.1-1.2-9.4c0-2.4,0.2-4.7,0.7-6.9
						c0.9-4.6,2.7-8.9,5.2-12.7c5.5-8.4,14.4-14.4,24.8-15.9C-54.8-8.3-53.7-8.4-52.5-8.5"/>
				</g>
				<g id="g36" transform="translate(279.2737,254.2051)">
					<path id="path38" class="st1" d="M-50.5,47.1c0,17,13.8,32.3,30.8,32.3h8.2v16.3h-3.3h-35.7h-16.3V79.4V23.8h16.3L-50.5,47.1z"
						/>
				</g>
				<path id="path40" class="st1" d="M355.9,307.1H400v16.3h-44.1V307.1z"/>
				<g id="g106" transform="translate(139.7394,280.1558)">
					<path id="path108" class="st1" d="M-50.5,47.1C-50.5,47.1-50.5,47.1-50.5,47.1l0,22.5h-89.2v-90.4h22.2
						C-114.7,15.1-86.3,43.8-50.5,47.1"/>
				</g>
				<g id="g110" transform="translate(153.6197,302.3734)">
					<path id="path112" class="st0" d="M-50.5,47.1V24.9c0,0,0,0,0,0c37.7-3.5,67.3-35.2,67.3-73.7c0-40.9-33.2-74-74.2-74
						c-38.2,0-69.7,28.9-73.7,66h-22.1c4.1-49.3,45.5-88.1,96-88.1c0,0,0,0,0,0c0,0,0,0,0,0h96v99.7c0,0,0,5.3-0.1,6.2
						C34,7.3-3.6,43.9-50.5,47.1"/>
				</g>
			</g>
		</g>
	</g>
</g>
</svg>
